<svg xmlns="http://www.w3.org/2000/svg" width="29.714" height="23.772" viewBox="0 0 29.714 23.772">
  <g id="Group_1" data-name="Group 1" transform="translate(0 -5.113)">
    <path id="Path_1" data-name="Path 1" d="M5.743,11.056v4.257H3.171V8.085A2.774,2.774,0,0,1,5.943,5.313h20.8a2.774,2.774,0,0,1,2.771,2.771V24.428A2.774,2.774,0,0,1,26.743,27.2H15.057V24.628H26.943V10.656l-.32.24-9.508,7.131a1.287,1.287,0,0,1-1.543,0L6.063,10.9l-.32-.24ZM16.223,15.3l.12.09.12-.09,9.41-7.057.48-.36H6.332l.48.36Z" fill="#0f7b9b" stroke="#fff" stroke-width="0.4"/>
    <path id="Path_2" data-name="Path 2" d="M.2,17.2h10v2.571H.2Zm2.971,4.457h8.514v2.571H3.171Zm10,4.457v2.571H7.629V26.114Z" fill="#0f7b9b" stroke="#fff" stroke-width="0.4"/>
  </g>
</svg>
