<svg xmlns="http://www.w3.org/2000/svg" width="28.255" height="23.818" viewBox="0 0 28.255 23.818">
  <path id="santa12" d="M6.054,19.762a32.922,32.922,0,0,0,8.582,1.35,32.923,32.923,0,0,0,8.582-1.35m-17.165,0c-2.936-.9-4.517,4.949-1.581,5.848s5.646,2.024,10.163,2.024S21.864,26.51,24.8,25.61s1.355-6.748-1.581-5.848m-17.165,0C7.184,16.988,9.668,11.08,10.571,9.64c1.129-1.8,2.484-3.149,4.743-2.249s5.2,2.024,7.009,1.574m.9,10.8c-.979-1.349-2.981-4.274-3.162-5.173a18.188,18.188,0,0,0,3.791-2.575m0,0A3.372,3.372,0,1,0,22.316,9.19,3.382,3.382,0,0,0,23.848,12.014Z" transform="translate(-1.836 -4.816)" fill="none" stroke="#0f7b9b" stroke-width="2"/>
</svg>
